/* XPM */
static char * ksokoban2_xpm[] = {
"40 40 6 1",
" 	c None",
".	c #000000",
"+	c #C00000",
"@	c #FF0000",
"#	c #800000",
"$	c #400000",
"                    .                   ",
"                   ...                  ",
"                   ...                  ",
"                  ..+..                 ",
"                 .@.+.#.                ",
"                .@.+++.#.               ",
"                .@.+++.#.               ",
"               .@.+++++.#.              ",
"              .@@.+++++.##.             ",
"              .@.+++++++.#.             ",
"             .@@.+++++++.##.            ",
"            .@@@.+++++++.###.           ",
"           .@@@.+++++++++.###.          ",
"           .@@@.+++++++++.###.          ",
"          .@@@.+++++++++++.###.         ",
"         .@@@@.+++++++++++.####.        ",
"        .@@@@.+++++++++++++.####.       ",
"        .@@@@.+++++++++++++.####.       ",
"       .@@@@@.+++++++++++++.#####.      ",
"      .@@@@@.+++++++++++++++.#####.     ",
"      .@@@@@.+++++++++++++++.#####.     ",
"     .@@@@@.+++++++++++++++++.#####.    ",
"    .@@@@@@.+++++++++++++++++.######.   ",
"   .@@@@@@.+++++++++++++++++++.######.  ",
"   .@@@@@@.+++++++++++++++++++.######.  ",
"  .....@@.+++++++++++++++++++++.##..... ",
"   ..$$...........................$$..  ",
"     .$$$$.###################.$$$$.    ",
"      .$$$$.#################.$$$$.     ",
"       ..$$$.###############.$$$..      ",
"         .$$$.#############.$$$.        ",
"          .$$$.###########.$$$.         ",
"           ..$$.#########.$$..          ",
"             .$$.#######.$$.            ",
"              ...#######...             ",
"                ..#####..               ",
"                 ..###..                ",
"                  ..#..                 ",
"                    .                   ",
"                                        "};
