/* XPM */
static char * ksokoban_xpm[] = {
"32 32 198 2",
"  	c None",
". 	c #020204",
"+ 	c #C66A5C",
"@ 	c #F6AEA4",
"# 	c #CEC2C4",
"$ 	c #92322C",
"% 	c #BA625C",
"& 	c #FEDAD4",
"* 	c #5E5A54",
"= 	c #A6665C",
"- 	c #76261C",
"; 	c #FECAC4",
"> 	c #BEBABC",
", 	c #823634",
"' 	c #A2463C",
") 	c #E6AA9C",
"! 	c #FED2CC",
"~ 	c #5E5654",
"{ 	c #A6524C",
"] 	c #9E4E4C",
"^ 	c #A2726C",
"/ 	c #7A261C",
"( 	c #E28A7C",
"_ 	c #FEB2AC",
": 	c #EAE2DC",
"< 	c #764644",
"[ 	c #A65654",
"} 	c #9E4E44",
"| 	c #9A5654",
"1 	c #9A4A44",
"2 	c #FEBAB4",
"3 	c #B29E9C",
"4 	c #823A34",
"5 	c #A24E4C",
"6 	c #9E4A44",
"7 	c #9A5A54",
"8 	c #8E3A34",
"9 	c #F2AAA4",
"0 	c #FEEAE4",
"a 	c #A68A8C",
"b 	c #8A423C",
"c 	c #A24A44",
"d 	c #A24E44",
"e 	c #965654",
"f 	c #8E3E3C",
"g 	c #6E2624",
"h 	c #C2928C",
"i 	c #FEBEB4",
"j 	c #FEC2BC",
"k 	c #EEDADC",
"l 	c #8E221C",
"m 	c #AA463C",
"n 	c #A6463C",
"o 	c #964E4C",
"p 	c #A25A54",
"q 	c #8E322C",
"r 	c #761E14",
"s 	c #FAB6AC",
"t 	c #FEB6B4",
"u 	c #E2DEDC",
"v 	c #621E1C",
"w 	c #AA423C",
"x 	c #923A34",
"y 	c #822A24",
"z 	c #FECEC4",
"A 	c #FEC6BC",
"B 	c #FEFEFC",
"C 	c #AE4A44",
"D 	c #B22E24",
"E 	c #B24234",
"F 	c #AA4234",
"G 	c #924A44",
"H 	c #92564C",
"I 	c #862E2C",
"J 	c #6E3634",
"K 	c #BE4634",
"L 	c #B23E34",
"M 	c #AE3E34",
"N 	c #96463C",
"O 	c #FEF2F4",
"P 	c #BA1E1C",
"Q 	c #C23E34",
"R 	c #BE3A2C",
"S 	c #AA3E34",
"T 	c #8E524C",
"U 	c #924644",
"V 	c #8A2E24",
"W 	c #922E24",
"X 	c #EA9A94",
"Y 	c #C6362C",
"Z 	c #C2362C",
"` 	c #BA362C",
" .	c #B63A2C",
"..	c #8A4A44",
"+.	c #D6AA9C",
"@.	c #FEBEBC",
"#.	c #FEE6E4",
"$.	c #FEE2DC",
"%.	c #CA3E34",
"&.	c #CE3224",
"*.	c #D23224",
"=.	c #CA3224",
"-.	c #BE362C",
";.	c #92423C",
">.	c #FECECC",
",.	c #E6BEBC",
"'.	c #CE1E14",
").	c #EA3224",
"!.	c #C63224",
"~.	c #B23A2C",
"{.	c #B2362C",
"].	c #AA3A2C",
"^.	c #864A44",
"/.	c #8A3634",
"(.	c #F69E94",
"_.	c #EAAEAC",
":.	c #D22214",
"<.	c #EE3224",
"[.	c #DE3224",
"}.	c #BA322C",
"|.	c #A63E34",
"1.	c #8A463C",
"2.	c #964A44",
"3.	c #82362C",
"4.	c #8A3A34",
"5.	c #EA2E1C",
"6.	c #FA2A14",
"7.	c #EE3624",
"8.	c #C23224",
"9.	c #B6362C",
"0.	c #723A34",
"a.	c #F61A14",
"b.	c #FE3624",
"c.	c #FA3224",
"d.	c #DE3624",
"e.	c #B2322C",
"f.	c #9E362C",
"g.	c #9A4E44",
"h.	c #662624",
"i.	c #6E3E3C",
"j.	c #FE9E94",
"k.	c #F2321C",
"l.	c #E23224",
"m.	c #D23624",
"n.	c #C2322C",
"o.	c #A2362C",
"p.	c #762E24",
"q.	c #5A0204",
"r.	c #FE6A64",
"s.	c #FE4E3C",
"t.	c #FE4A34",
"u.	c #FE422C",
"v.	c #F63E2C",
"w.	c #DA2E1C",
"x.	c #D63624",
"y.	c #CA3624",
"z.	c #BE322C",
"A.	c #9A423C",
"B.	c #964644",
"C.	c #6E2A2C",
"D.	c #5A0A04",
"E.	c #4A0E0C",
"F.	c #625A54",
"G.	c #625E5C",
"H.	c #5E6664",
"I.	c #5E6264",
"J.	c #6A4A44",
"K.	c #764E4C",
"L.	c #864E4C",
"M.	c #86423C",
"N.	c #824644",
"O.	c #66120C",
"P.	c #72261C",
"Q.	c #6A3234",
"R.	c #6E322C",
"S.	c #723234",
"T.	c #6E3234",
"U.	c #6E2E2C",
"V.	c #6E2A24",
"W.	c #6A261C",
"X.	c #6E1A14",
"Y.	c #5A0E0C",
"Z.	c #6A1614",
"`.	c #762A24",
" +	c #722E2C",
".+	c #723634",
"++	c #72322C",
"@+	c #5E120C",
"#+	c #763634",
"$+	c #6E2E24",
"%+	c #76322C",
"&+	c #72362C",
"*+	c #763E3C",
"=+	c #7A3E3C",
"-+	c #6A2A24",
";+	c #2A0604",
">+	c #7A362C",
",+	c #76423C",
"                                .                               ",
"                              . + .                             ",
"                            . @ # $ .                           ",
"                          . % & * = - .                         ",
"                          . ; > , = ' .                         ",
"                        . ) ! ~ { ] ^ / .                       ",
"                      . ( _ : < [ } | 1 / .                     ",
"                      . 2 ; 3 4 5 6 } 7 8 .                     ",
"                    . 9 2 0 a b c d 6 e f g .                   ",
"                  . h i j k l m n d c o p q r .                 ",
"                  . s t & u v w n n d 6 | x y .                 ",
"                . z A A B C D E F F n ' G H I - .               ",
"              . + A 2 A B J K L M F F F N | 8 q / .             ",
"              . A j i O ) P Q R L M S M ' T U V W .             ",
"            . X j 2 j B ^ R Y Z `  .M S F ..7 I V y .           ",
"          . +.j @.2 #.$.%.&.*.=.-.`  .M M G H ;.y I / .         ",
"          . _ _ 2 >.0 ,.'.).*.*.!.-.~.{.].' ^.e q /.W .         ",
"        . (.2 j >.; #._.:.<.[.*.=.!.}.{.{.|.1.1.2.3.4.V .       ",
"      . + j j A A j 0 5.6.7.[.[.&.!.8.9.{.].f /.o /./.f 0..     ",
"      . #.#.A 2 i j $.a.b.c.).d.*.Y 8.}.e.].f./.g.;.3.2.h..     ",
"        . i.$.$.2 >.j.6.b.c.k.l.m.&.n.` e.e.o., 4.| 1 p..       ",
"          . q.U $.#.r.s.t.u.v.<.d.w.x.y.=.z.8.A.4.B.C..         ",
"            . D.E.F.G.H.I.I.G.* * J.K.L...M.N.3.3.r .           ",
"              . O.O.P.P.g Q.R.S.S.T.R.J U.V.W.X.Y..             ",
"                . Z.p.`.U. +.+S.++S.S.T.V. +- @+.               ",
"                  .  +#+$+V.T.J S.S.S.$+V.%+O..                 ",
"                    . C.&+U.++S.S.T.&+ +*+v .                   ",
"                      . 0.U.U.T.S.S.U.*+W..                     ",
"                        . 0.%+R..+T.=+-+.                       ",
"                          ;+>+>+.+N.-+.                         ",
"                            . . ,+. .                           ",
"                                .                               "};
