/* XPM */
static char * large_ksokoban_xpm[] = {
"48 48 220 2",
"  	c None",
". 	c #000000",
"+ 	c #2A2D2D",
"@ 	c #1F1F1F",
"# 	c #A8362C",
"$ 	c #D86456",
"% 	c #822C26",
"& 	c #FFABA2",
"* 	c #FFE0DE",
"= 	c #8A3B33",
"- 	c #C1BEBE",
"; 	c #9F706C",
"> 	c #711D16",
", 	c #1D1616",
"' 	c #2C4C50",
") 	c #995953",
"! 	c #9B6963",
"~ 	c #FFC0B9",
"{ 	c #6F3935",
"] 	c #9B544E",
"^ 	c #93322A",
"/ 	c #FEF8F6",
"( 	c #76544F",
"_ 	c #9A4A43",
": 	c #9D4D46",
"< 	c #191111",
"[ 	c #FFBAB5",
"} 	c #FEFFFF",
"| 	c #490B05",
"1 	c #964F4A",
"2 	c #FFA59E",
"3 	c #FFD9D5",
"4 	c #CECACA",
"5 	c #6D0100",
"6 	c #9D5D57",
"7 	c #862118",
"8 	c #FFBCB5",
"9 	c #954038",
"0 	c #9F4B44",
"a 	c #9C4C45",
"b 	c #90413A",
"c 	c #180000",
"d 	c #979898",
"e 	c #4C0000",
"f 	c #A0473F",
"g 	c #9F4842",
"h 	c #9E4A43",
"i 	c #914F49",
"j 	c #87352E",
"k 	c #FFB5AE",
"l 	c #FFC5BF",
"m 	c #FFEBE4",
"n 	c #F3CECD",
"o 	c #5E0000",
"p 	c #914843",
"q 	c #8D3028",
"r 	c #82231B",
"s 	c #BB4F49",
"t 	c #992B21",
"u 	c #A3443C",
"v 	c #813029",
"w 	c #200000",
"x 	c #FFAEA5",
"y 	c #FFBBB4",
"z 	c #FEFBFA",
"A 	c #A24139",
"B 	c #A4433B",
"C 	c #87332C",
"D 	c #ACADAD",
"E 	c #FFB8B3",
"F 	c #FEFBFB",
"G 	c #FFD9D4",
"H 	c #AC3C32",
"I 	c #A93F35",
"J 	c #A54137",
"K 	c #94453E",
"L 	c #832C23",
"M 	c #82281F",
"N 	c #242424",
"O 	c #FFBAB3",
"P 	c #FEF9F8",
"Q 	c #AE1F0F",
"R 	c #AB4138",
"S 	c #A1423A",
"T 	c #9A433D",
"U 	c #8D4943",
"V 	c #7C2119",
"W 	c #FFB8B1",
"X 	c #FEFEFC",
"Y 	c #6E0000",
"Z 	c #B13B2F",
"` 	c #AE3B30",
" .	c #90453E",
"..	c #945854",
"+.	c #8C413A",
"@.	c #B8392D",
"#.	c #A73D33",
"$.	c #83362F",
"%.	c #C30900",
"&.	c #BE3529",
"*.	c #B7352A",
"=.	c #9B433B",
"-.	c #894741",
";.	c #8B3730",
">.	c #7E2921",
",.	c #FFB9B2",
"'.	c #8C0000",
").	c #C63C2F",
"!.	c #C33327",
"~.	c #BF3227",
"{.	c #B4352B",
"].	c #AA3A30",
"^.	c #7F2A22",
"/.	c #030000",
"(.	c #FFB9B3",
"_.	c #FFF0EC",
":.	c #CC3225",
"<.	c #BB3428",
"[.	c #B1352B",
"}.	c #884A44",
"|.	c #83322B",
"1.	c #FD6456",
"2.	c #D13124",
"3.	c #CD2F22",
"4.	c #C53023",
"5.	c #B53328",
"6.	c #AB3A2F",
"7.	c #A7392F",
"8.	c #7F3029",
"9.	c #FFB1AC",
"0.	c #FFCAC4",
"a.	c #E42E1E",
"b.	c #BE3126",
"c.	c #9F3C33",
"d.	c #FEF4F4",
"e.	c #AE0200",
"f.	c #EC2F20",
"g.	c #DC2D1F",
"h.	c #C82F22",
"i.	c #C42F22",
"j.	c #BC3025",
"k.	c #B13329",
"l.	c #AE342A",
"m.	c #864640",
"n.	c #676767",
"o.	c #FF887B",
"p.	c #FFC3BC",
"q.	c #FCB6B3",
"r.	c #CC0400",
"s.	c #EC2C1B",
"t.	c #D83021",
"u.	c #D32E20",
"v.	c #BA3125",
"w.	c #883E38",
"x.	c #FFB0A7",
"y.	c #E73F2F",
"z.	c #FF230F",
"A.	c #F52E1D",
"B.	c #C03024",
"C.	c #883831",
"D.	c #FFBFB7",
"E.	c #ED0700",
"F.	c #FF301E",
"G.	c #F93120",
"H.	c #BF2F23",
"I.	c #8D352D",
"J.	c #8A362F",
"K.	c #FFD0CA",
"L.	c #FFB0A8",
"M.	c #FD1300",
"N.	c #FF3725",
"O.	c #B03126",
"P.	c #AB2D23",
"Q.	c #65120A",
"R.	c #FF3420",
"S.	c #CA2E21",
"T.	c #BD2F23",
"U.	c #B63126",
"V.	c #97342C",
"W.	c #8D1406",
"X.	c #FFA8A4",
"Y.	c #FD0E00",
"Z.	c #1A1717",
"`.	c #FFAFA4",
" +	c #FF5F51",
".+	c #FF7566",
"++	c #FF4534",
"@+	c #D23F31",
"#+	c #AB4840",
"$+	c #7E413B",
"%+	c #7D2E27",
"&+	c #0F0F0F",
"*+	c #3B3636",
"=+	c #1F474A",
"-+	c #385254",
";+	c #4C4C4C",
">+	c #5C4746",
",+	c #63423F",
"'+	c #603E39",
")+	c #643D39",
"!+	c #66221C",
"~+	c #742921",
"{+	c #79261E",
"]+	c #671C13",
"^+	c #6D2A23",
"/+	c #682922",
"(+	c #692821",
"_+	c #68342F",
":+	c #6B322E",
"<+	c #6B2A23",
"[+	c #6C2F29",
"}+	c #71231C",
"|+	c #71332D",
"1+	c #6A2B24",
"2+	c #6B2F2B",
"3+	c #6A2E2A",
"4+	c #71423E",
"5+	c #754642",
"6+	c #7D4944",
"7+	c #170705",
"                                                                                                ",
"                                                                                                ",
"                                              . + @                                             ",
"                                            . # $ % .                                           ",
"                                          . # & * = % .                                         ",
"                                          . & & - ; > ,                                         ",
"                                        . # & * ' ) ! > .                                       ",
"                                      . # & ~ - { ] ; ^ > .                                     ",
"                                      . & & / ( _ : ] ; > <                                     ",
"                                    . # & [ } | : : : ! 1 > .                                   ",
"                                  . # & 2 3 4 5 : : : 1 6 7 > .                                 ",
"                                  . & & 8 } : 9 0 0 0 a 6 b % c d                               ",
"                                . # & & 3 } e f g h h a i ] j > .                               ",
"                              . # & k l m n o 0 g h h h p 6 q r > .                             ",
"                              . & k k 8 } s t u u f f f _ 1 : v % w                             ",
"                            . # x y 8 z } o A B B u f f f p 6 q C o @ D                         ",
"                          . # & 8 E 8 F G o H I J B B f f K 1 K L M o .                         ",
"                          N & O 8 8 P } s Q R H I J J S S T U 6 % % V .                         ",
"                        . # W [ O 8 X } Y Z Z ` H I J J S S  ...+.L v o c                       ",
"                      . # & 8 [ 8 l } G Y @.@.Z ` H I #.J A K U ] L L $.o .                     ",
"                      . & y 8 8 l } } $ %.@.&.*.Z ` H #.#.#.=.-...;.L L >..                     ",
"                    . # ,.y [ ,.8 X } '.).!.~.&.*.{.` ].].#.A -.i 1 ^.L L > /.                  ",
"                  . i x (.O O l _.} m '.:.:.!.~.<.*.[.` ].#.#. .}.) C ^.L |.> .                 ",
"                  . & k W ,.W l } } 1.%.2.2.3.4.~.<.5.[.6.6.7.=.-.i p M 8.8.>..                 ",
"                @ # & 9.9.k 0.0.P } %.a.a.2.2.3.4.b.*.[.[.6.7.c.-.-.) |.C C ^.V .               ",
"              N # 2 x x (.l 0.l / d.e.f.a.g.2.3.h.i.j.5.k.l.7.7. .m.p p C C C 8.o w n.          ",
"              . o.& k p.0.0.0.l X q.r.f.s.a.t.u.3.4.b.v.k.l.l.# 9 w.;.] ;.j C 8.|..             ",
"            . # x.y ~ p.p.p.l p.} y.z.A.f.a.g.t.3.h.B.j.5.k.l.# c.C.j p  .j j j j 8..           ",
"            . d.* y [ 8 D.D.~ p.m E.F.G.A.s.a.t.u.h.i.H.v.k.l.# # I.j = ] J.j j j +..           ",
"            . e 3 } K.y y [ 8 3 L.M.N.F.A.f.a.g.u.3.i.H.v.k.O.# P.^ j j 1 +.j j i e .           ",
"              . e Q./ } m E ,.m 1.R.N.F.G.A.s.g.t.3.S.H.T.U.O.O.P.V.$.j +.] +.1 e . n.          ",
"                . e Q.W.X.} F * Y.N.N.N.F.A.s.a.t.u.S.i.T.U.U.O.P.P.J.C.= U 1 e .               ",
"                  . e Q.. Z.`.*  +.+.+ + + +++++++F.G.y.@+@+@+).).).#+$+%+J.e .                 ",
"                    . e Q.Q.&+*+' =+=+' -+-+-+-+-+-+;+;+>+>+,+'+)+,+!+~+{+e .                   ",
"                      . e Q.Q.]+^+/+(+/+_+_+:+:+:+:+:+:+:+:+<+(+<+]+> ]+e .                     ",
"                        . e Q.Q.> ~+/+(+[+:+:+:+:+:+:+:+:+[+(+<+!+}+]+e .                       ",
"                          . e |+|+}+:+(+<+:+:+:+:+:+:+:+:+1+(+<+}+]+e .                         ",
"                            . e |+|+^+^+(+2+:+:+:+:+:+:+2+(+^+|+}+e .                           ",
"                              . e |+^+^+3+1+:+:+:+:+:+:+1+1+:+|+e .                             ",
"                                . e 4+^+^+^+2+:+:+:+:+2+<+:+4+e .                               ",
"                                  . e 4+^+^+3+:+:+:+:+[+:+5+e .                                 ",
"                                    . e 5+^+^+:+:+:+:+:+6+e .                                   ",
"                                      . e 5+^+^+:+|+:+6+e .                                     ",
"                                        . e 5+:+:+:+6+e .                                       ",
"                                          . . e 5+e 7+.                                         ",
"                                              . @ .                                             ",
"                                                                                                ",
"                                                                                                "};
