/* XPM */
static char * mini2_xpm[] = {
"16 16 6 1",
" 	c None",
".	c #000000",
"+	c #FF0000",
"@	c #800000",
"#	c #C00000",
"$	c #400000",
"       .        ",
"      ...       ",
"     .....      ",
"     .+.@.      ",
"    .+.#.@.     ",
"   .+.###.@.    ",
"  .++.###.@@.   ",
"  .++.###.@@.   ",
" .++.#####.@@.  ",
"..++.#####.@@.. ",
" .............  ",
"  ..$$@@@$$..   ",
"    .$$@$$.     ",
"     ..$..      ",
"       .        ",
"                "};
